<?xml version="1.0" encoding="UTF-8"?>
<svg xmlns="http://www.w3.org/2000/svg" version="1.1" viewBox="50 35 205 230">
  <style>
    .light { fill: #000; }
    .dark { display: none; fill: #fff; }
    @media (prefers-color-scheme: dark) {
      .light { display: none; }
      .dark { display: inline; fill: #fff; }
    }
  </style>
  <!-- Light mode (black on transparent) -->
  <g class="light">
    <path d="M125.97,222.76c.61.93,1.73,1.51,2.91,1.51.07,0,.13,0,.2,0,.1,0,.2-.02.29-.03,1.08-.15,1.99-.81,2.5-1.8.93-1.84,3.33-6.57,4.91-9.72.53-1.06.52-2.26-.03-3.31-.55-1.05-1.54-1.74-2.72-1.89l-2.73-.35c-1.62-.21-3.45-.45-4.86-.67-1.16-.19-2.22.2-2.92,1.05-.76.93-.97,2.28-.53,3.43.41,1.09,1.33,1.83,2.52,2.02l3.52.57-3.15,6.2c-.52,1.02-.48,2.11.1,3Z"/>
    <path d="M168.6,216.87c.16,0,.32-.01.48-.03,1.17-.16,2.49-.98,2.68-2.79.34-3.32,2.09-6.11,4.81-7.64,2.75-1.55,6.08-1.62,9.15-.19,1.05.49,2.16.42,3.06-.21.98-.68,1.54-1.92,1.44-3.16-.1-1.18-.79-2.15-1.89-2.66-4.9-2.29-10.35-2.11-14.96.51-4.61,2.61-7.57,7.19-8.13,12.56-.22,2.12,1.39,3.43,3,3.6.12.01.24.02.36.02Z"/>
    <path d="M225.15,195.99c.39-1.04.18-2.16-.56-3.06-2.82-3.42-6.86-5.11-11.07-4.64-4.24.47-7.97,3.13-9.99,7.12-.81,1.6-.25,3.3,1.38,4.12.52.26,1.09.4,1.65.4.36,0,.72-.06,1.06-.17.83-.27,1.49-.85,1.91-1.68.97-1.91,2.64-3.12,4.6-3.31,2.01-.21,3.96.6,5.33,2.26.74.89,1.79,1.32,2.89,1.17h.11c1.21-.22,2.27-1.08,2.69-2.21Z"/>
    <path d="M202.14,216.23c-1.12-.23-2.17.09-2.88.88-.78.88-1.04,2.21-.65,3.4.38,1.15,1.28,1.96,2.49,2.21.64.13,1.3.2,1.96.2.45,0,.9-.03,1.35-.09,3.82-.53,7.1-3.25,8.17-6.78,1.42-4.69-1.16-9.92-5.87-11.9-1.09-.46-2.23-.33-3.13.35-.97.74-1.49,2-1.34,3.21.14,1.13.85,2.04,1.95,2.51,2.05.86,2.35,2.53,1.95,3.81-.43,1.38-1.86,2.66-4,2.21Z"/>
    <path d="M168.94,240.24c.84.44,1.84.53,2.73.25.85-.27,1.52-.84,1.94-1.65l.96-1.84s.03.02.05.02c5.18,2.46,10.77,3.71,16.43,3.71,1.75,0,3.5-.12,5.25-.36,10.4-1.44,19.87-7.18,25.98-15.75.7-.98.82-2.15.34-3.21-.51-1.12-1.62-1.92-2.82-2.03-1.11-.1-2.13.39-2.8,1.33-9.07,12.73-25.24,16.99-39.4,10.45l1.47-2.84c.82-1.59.28-3.27-1.32-4.1-1.52-.79-3.69-.48-4.67,1.41l-5.45,10.51c-.82,1.59-.28,3.28,1.32,4.1Z"/>
    <path d="M238.75,138.24c-5.14-1.68-10.74-1.47-17.6.68l-8.59-20.6c15.54-10.11,22.39-30.44,15.92-47.45-6.75-17.75-25.63-28.66-43.92-25.42-9.84,1.75-18.95,7.17-25.08,14.88-5.69-7.61-14.02-12.93-22.95-14.62-6.36-1.21-12.78-.81-18.58,1.14-10.97,3.68-29.99,18.28-23.91,47.24-13.45-1.34-31.13,4.26-38.76,19.84-4.53,9.26-5.06,20.2-1.45,30,3.51,9.53,10.43,16.96,19.49,20.89,9.59,4.17,20.87,4.32,30.27.42,2.22,3.97,7,12.91,10.86,20.14,2.57,4.82,4.82,9.03,5.7,10.62-1.62,1.02-3.08,2.19-4.34,3.47-6.3,6.37-8.64,15.99-5.82,23.94,2.81,7.93,11.19,13.64,19.47,13.35,5.19-.21,9.93-2.61,14.46-7.32,8.75,14.26,24.58,24.01,41.44,25.49,1.39.12,2.79.18,4.19.18,2.23,0,4.46-.15,6.68-.46,14.28-1.98,27.34-10.17,35.84-22.47,6.12-8.85,9.4-18.97,9.5-29.26.02-2.17-1.78-3.49-3.54-3.51h-.01c-1.71,0-2.97,1.23-2.98,2.94-.2,20.96-15.35,40.34-35.25,45.07-19.69,4.69-41.74-5.35-51.43-23.39.81-1.11,1.64-2.32,2.67-3.89.7-1.06.63-2.05.45-2.69-.22-.8-.76-1.53-1.48-2-1.53-1.01-3.31-.66-4.3.85l-.17.26c-3.65,5.52-8.19,12.38-15.01,13.51-5.86,1-12.35-3.08-14.44-9.1-2.01-5.79.06-13,5.04-17.53,5.03-4.58,12.42-6.23,20.28-4.55.83.18,1.66.05,2.31-.37.67-.43,1.13-1.14,1.32-2,.36-1.67-.51-3.67-2.58-4.11-5.48-1.18-11.3-.88-16.41.82l-.58-1.04c31.35-34.98,78.27-52.22,88.34-55.63l1.71,4.35c-.77.32-1.68.71-2.52,1.08l-1.3.56c-20.7,8.88-40.47,20.42-58.76,34.3-1.66,1.26-1.55,3.22-.57,4.51.52.68,1.24,1.15,2.03,1.31.9.19,1.79-.03,2.57-.63,11.13-8.45,22.76-15.98,34.56-22.41,5.86-3.19,11.96-6.22,18.13-9.01l2.14-.97c5.49-2.51,11.17-5.09,17.05-5.82,5.78-.73,12.58,1,14.72,6.52,2.03,5.24-1.09,10.87-5.06,13.51-3.4,2.26-8.22,3.3-12.67,2.76.64-2.49,1.04-5.82-.33-8.43-.86-1.64-2.28-2.77-4.23-3.35-3.03-.91-5.73.05-7.42,2.63-2.14,3.27-1.93,8.03.47,10.83.74.87,1.64,1.64,2.68,2.3-3.2,4.93-8.15,8.36-14,9.68-6.32,1.45-13.03.16-18.38-3.54-.75-.51-1.58-.7-2.42-.55-.88.16-1.7.7-2.23,1.47-.46.67-.67,1.46-.58,2.23.1.87.57,1.61,1.35,2.15,6.9,4.76,15.51,6.45,23.64,4.63,8.03-1.79,14.73-6.67,18.88-13.76,4.99.87,10.3.02,13.63-1.08,7.58-2.51,12.97-8.92,13.74-16.32.81-7.78-3.96-14.74-11.87-17.32ZM104.93,157.68c-.13,0-.26,0-.4.03-.33.05-.65.15-.96.31-7.54,3.92-16.69,4.55-25.11,1.73-7.87-2.64-14.05-7.96-17.38-14.97-3.69-7.77-4.05-16.9-.99-25.05,2.9-7.7,8.51-13.68,15.79-16.82,4.74-2.05,12.3-3.65,19.38-2.08,1.34,5.8,3.34,12.17,7.87,15.89,2.38,1.96,5.55,2.85,8.69,2.43,2.95-.46,5.44-1.92,7.01-4.12,3.35-4.7,2.23-10.94-2.61-14.5-4.96-3.66-11.12-5.11-15.5-5.69-2.5-9.67-.96-20.8,4.06-29.11,4.33-7.17,10.82-11.85,18.77-13.52,12.2-2.58,25.08,3.15,32.13,14.26-4.2,7.38-6.36,16.92.07,21.81,1.59,1.21,4.12,1.74,6.62,1.4,2.31-.32,4.27-1.36,5.38-2.86,5.15-6.89-.21-14.38-3.41-18.86l-.09-.12c-.33-.46-.64-.9-.92-1.3,4.53-7.97,12.9-13.22,23.01-14.43,11.26-1.33,22.55,2.69,29.48,10.49,6.44,7.24,9.29,16.55,8.04,26.22-1.2,9.26-6.18,17.68-13.7,23.19l-1.28-3.41c-.72-1.91-2.58-2.35-4.06-1.81-1.54.58-2.77,2.28-2.01,4.32l8.52,19.87c-10.17,3.47-56.95,20.76-89.05,55.58-1.72-3.1-4.78-8.89-7.74-14.5-2.81-5.32-5.47-10.35-6.65-12.45-.55-.99-1.67-1.91-2.98-1.91ZM113.74,107.08c.56.93.64,1.94.25,3.08-.51,1.47-1.39,2.26-2.76,2.47-1.95.2-4.43-1.14-5.63-3.09-1.3-2.11-2.34-4.58-3.26-7.72,5.92,1.13,10.05,3.04,11.39,5.26ZM163.03,81.88c-.34.78-1.05,1.19-2.24,1.29-.36.01-.88-.12-1.32-.6-.68-.74-1.34-2.41-.69-6.18h0c.2-1.18.74-2.67,1.24-3.89,2.57,3.73,3.8,7.53,3,9.39ZM219.83,164.53c-.61-.49-1.17-1.18-1.14-2.01.02-.62.36-.97.61-1.03,0,0,.02,0,.03,0,.21,0,.39.32.44.42.31.61.33,1.49.06,2.63Z"/>
  </g>
  <!-- Dark mode (white on transparent) -->
  <g class="dark">
    <path d="M219.33,161.64c-.19.04-.48.35-.49.89-.02.6.28,1.18.9,1.73.21-.99.17-1.75-.1-2.28-.1-.19-.23-.34-.31-.34Z"/>
    <path d="M111.22,112.48c1.3-.2,2.14-.96,2.63-2.37.38-1.09.3-2.06-.24-2.95-1.29-2.15-5.31-4.02-11.05-5.14.9,3.02,1.91,5.39,3.17,7.45,1.16,1.88,3.56,3.22,5.49,3.02Z"/>
    <path d="M240.15,132.19c-4.92-1.61-10.04-1.87-15.82-.78l-4.57-10.95c14.88-12.45,20.94-33.82,14.08-51.85-7.82-20.54-29.73-33.19-50.99-29.42-8.84,1.58-17.22,5.74-23.83,11.74-6.13-5.86-13.82-9.93-21.9-11.46-7.43-1.41-14.96-.94-21.8,1.36-11.75,3.95-31.57,18.58-29.25,46.83-14.19.96-29.57,8.1-37.1,23.49-5.29,10.82-5.92,23.57-1.71,34.99,4.12,11.18,12.26,19.89,22.93,24.53,9.32,4.05,20.08,4.83,29.78,2.29,2.25,4.15,5.17,9.62,7.67,14.29l.61,1.14c1.15,2.15,2.23,4.18,3.16,5.91-.24.23-.48.47-.72.7-7.98,8.07-10.91,20.35-7.29,30.54,3.75,10.57,14.5,17.93,25.73,17.58,4.58-.19,8.93-1.65,13.01-4.37,10.21,12.65,25.75,21.09,42.08,22.53,1.57.14,3.17.21,4.74.21,2.51,0,5.05-.17,7.55-.52,16.04-2.22,30.7-11.39,40.21-25.16,6.84-9.9,10.51-21.25,10.62-32.81,0,0,.09-15.52-4.7-26.96,7.62-4.07,12.85-11.45,13.72-19.82,1.12-10.83-5.39-20.49-16.22-24.02ZM250.77,155.57c-.77,7.46-6.21,13.92-13.84,16.45-3.31,1.09-8.61,1.95-13.6,1.1-4.17,7.07-10.88,11.95-18.92,13.74-8.17,1.82-16.83.12-23.76-4.66-.82-.56-1.31-1.34-1.41-2.26-.09-.8.12-1.63.61-2.33.55-.8,1.4-1.36,2.32-1.53.88-.16,1.76.04,2.53.58,5.33,3.67,11.98,4.96,18.26,3.51,5.74-1.3,10.65-4.67,13.82-9.49-.99-.65-1.86-1.41-2.58-2.25-2.44-2.85-2.65-7.69-.48-11.01,1.73-2.65,4.5-3.63,7.59-2.7,1.99.6,3.44,1.75,4.32,3.43,1.38,2.62.98,5.97.39,8.37,4.36.49,9.09-.56,12.4-2.76,3.92-2.61,7.01-8.17,5-13.33-2.11-5.44-8.83-7.15-14.56-6.43-5.86.73-11.52,3.31-17,5.81l-2.14.97c-6.17,2.79-12.27,5.82-18.12,9-11.79,6.42-23.42,13.95-34.54,22.39-.82.63-1.76.85-2.69.66-.83-.17-1.58-.66-2.12-1.37-1.02-1.35-1.14-3.4.6-4.72,18.3-13.89,38.08-25.43,58.79-34.32l1.3-.56c.79-.34,1.65-.71,2.39-1.02l-1.6-4.08c-9.53,3.23-56.72,20.53-88.07,55.46l.47.83c5.12-1.67,10.92-1.95,16.37-.78,2.16.46,3.07,2.54,2.69,4.29-.19.9-.68,1.64-1.38,2.09-.69.44-1.55.59-2.42.4-7.82-1.67-15.16-.02-20.15,4.51-4.94,4.49-6.99,11.63-5,17.37,2.07,5.95,8.48,9.99,14.27,9.01,6.76-1.11,11.28-7.95,14.91-13.44l.17-.26c.51-.77,1.23-1.28,2.05-1.44.81-.16,1.69.03,2.46.54.74.49,1.3,1.25,1.54,2.08.19.67.26,1.71-.47,2.81-1.01,1.53-1.82,2.71-2.62,3.82,9.66,17.9,31.66,27.89,51.21,23.23,19.83-4.71,34.94-24.03,35.14-44.93.02-1.79,1.33-3.09,3.13-3.09,1.84.02,3.72,1.39,3.7,3.66-.1,10.32-3.39,20.46-9.52,29.34-8.53,12.34-21.63,20.55-35.95,22.54-2.21.31-4.47.46-6.7.46-1.4,0-2.81-.06-4.21-.18-16.8-1.47-32.66-11.2-41.45-25.4-4.52,4.66-9.24,7.02-14.43,7.23-.2,0-.41.01-.61.01-8.16,0-16.26-5.69-19.01-13.46-2.84-8-.49-17.69,5.85-24.1,1.24-1.26,2.67-2.4,4.25-3.41-.91-1.65-3.04-5.64-5.5-10.25l-.36-.67c-3.73-6.98-8.37-15.65-10.57-19.59-9.4,3.86-20.7,3.69-30.26-.47-9.1-3.96-16.05-11.41-19.58-20.98-3.62-9.84-3.09-20.82,1.46-30.12,7.59-15.51,25.34-21.2,38.7-19.94-5.97-28.95,13.1-43.54,24.05-47.22,5.83-1.96,12.28-2.35,18.66-1.14,8.88,1.68,17.23,6.97,22.93,14.52,6.14-7.66,15.26-13.04,25.05-14.78,18.36-3.26,37.31,7.7,44.09,25.51,6.46,16.98-.37,37.4-15.87,47.56l8.49,20.36c6.84-2.12,12.42-2.32,17.56-.64,7.98,2.61,12.79,9.63,11.97,17.48ZM167.49,236.06l5.45-10.51c.47-.91,1.26-1.54,2.23-1.78.87-.22,1.84-.11,2.64.31,1.68.87,2.25,2.64,1.38,4.31l-1.4,2.7c14.05,6.41,30.1,2.11,39.07-10.47.7-.99,1.77-1.5,2.94-1.4,1.25.12,2.41.95,2.94,2.12.51,1.11.38,2.33-.35,3.36-6.13,8.61-15.64,14.37-26.08,15.81-1.75.24-3.52.36-5.27.36-5.7,0-11.22-1.24-16.41-3.69l-.89,1.71c-.44.85-1.14,1.45-2.03,1.73-.93.29-1.96.2-2.84-.26-1.68-.87-2.25-2.64-1.38-4.31ZM165.08,213.23c.56-5.42,3.55-10.04,8.2-12.68,4.66-2.64,10.16-2.83,15.1-.51,1.15.54,1.87,1.55,1.97,2.79.11,1.29-.48,2.58-1.5,3.29-.94.65-2.11.73-3.21.22-3.02-1.41-6.31-1.35-9.01.18-2.67,1.51-4.4,4.26-4.73,7.53-.2,1.9-1.58,2.76-2.81,2.93-.17.02-.33.03-.5.03-.13,0-.25,0-.38-.02-1.69-.17-3.36-1.55-3.13-3.77ZM204.13,210.35c-1.15-.49-1.89-1.44-2.04-2.63-.16-1.26.39-2.58,1.4-3.34.95-.72,2.14-.85,3.28-.37,4.78,2.01,7.4,7.31,5.95,12.08-1.08,3.58-4.41,6.34-8.29,6.88-.46.06-.92.1-1.37.1-.67,0-1.33-.07-1.99-.21-1.26-.26-2.21-1.1-2.6-2.31-.41-1.24-.14-2.63.68-3.54.75-.83,1.85-1.17,3.02-.93h0c2.04.43,3.42-.79,3.83-2.11.38-1.21.08-2.8-1.87-3.62ZM222.48,198.34h-.11c-1.16.18-2.26-.27-3.03-1.2-1.33-1.61-3.23-2.42-5.2-2.21-1.91.19-3.54,1.37-4.48,3.23-.44.86-1.12,1.47-1.99,1.75-.36.12-.73.17-1.11.17-.59,0-1.19-.14-1.72-.42-1.7-.86-2.29-2.64-1.44-4.32,2.04-4.03,5.82-6.73,10.11-7.21,4.26-.48,8.35,1.24,11.2,4.69.78.95,1,2.12.59,3.21-.44,1.18-1.54,2.08-2.81,2.29ZM125.47,213.14c-1.24-.2-2.2-.97-2.63-2.12-.46-1.2-.24-2.6.56-3.58.73-.9,1.84-1.3,3.06-1.11,1.39.23,3.21.46,4.81.67l2.78.36c1.22.16,2.26.88,2.83,1.97.58,1.09.59,2.35.03,3.45-1.59,3.15-3.98,7.88-4.91,9.72-.53,1.04-1.48,1.73-2.61,1.88-.1.01-.2.02-.3.03-.07,0-.14,0-.21,0-1.24,0-2.4-.61-3.04-1.58-.61-.94-.65-2.08-.11-3.15l3.06-6.02-3.31-.54Z"/>
    <path d="M160.79,83.01c1.12-.09,1.79-.47,2.1-1.2.76-1.78-.37-5.38-2.83-9.02-.59,1.48-.97,2.69-1.13,3.6l-.02.12c-.61,3.62.03,5.22.67,5.93.47.52,1,.56,1.2.55Z"/>
    <path d="M204.78,106.63c1.55-.56,3.51-.1,4.25,1.89l1.21,3.23c7.39-5.48,12.3-13.84,13.48-22.97,1.24-9.62-1.6-18.89-8.01-26.1-6.9-7.77-18.14-11.77-29.35-10.44-10.01,1.19-18.34,6.39-22.85,14.27.26.38.55.79.86,1.22l.09.13c3.22,4.52,8.62,12.07,3.4,19.04-1.14,1.52-3.14,2.58-5.48,2.91-2.54.35-5.12-.2-6.73-1.43-6.48-4.93-4.33-14.54-.15-21.92-7.02-11-19.84-16.67-31.92-14.12-7.91,1.67-14.36,6.32-18.68,13.45-4.97,8.23-6.53,19.29-4.07,28.89,4.33.58,10.5,2.04,15.47,5.7,4.91,3.62,6.04,9.94,2.64,14.71-1.59,2.24-4.12,3.72-7.11,4.18-3.18.42-6.39-.48-8.8-2.46-4.57-3.76-6.56-10.13-7.9-15.88-7.03-1.53-14.52.07-19.2,2.09-7.25,3.13-12.83,9.07-15.71,16.74-3.05,8.11-2.69,17.2.99,24.93,3.32,6.98,9.46,12.27,17.3,14.9,8.38,2.81,17.49,2.18,24.99-1.72.33-.17.67-.28,1.01-.33.13-.02.27-.03.42-.03,1.48,0,2.6,1.07,3.11,1.98,1.19,2.13,3.97,7.38,6.65,12.45l.14.26c2.85,5.39,5.79,10.96,7.5,14.06,32.14-34.76,79.25-52.15,88.81-55.42l-8.46-19.72c-.8-2.12.49-3.91,2.1-4.52Z"/>
  </g>
</svg>
