<?xml version="1.0" encoding="UTF-8"?>
<svg id="Layer_1" xmlns="http://www.w3.org/2000/svg" version="1.1" viewBox="0 0 313.34 155.11">
  <!-- Generator: Adobe Illustrator 30.1.0, SVG Export Plug-In . SVG Version: 2.1.1 Build 136)  -->
  <g>
    <path d="M142.92,77.77h.25c1,0,1.81.82,1.79,1.82l-.12,7.75h.07c1.5-6.43,6.36-10.14,12.64-10.14,6.86,0,11.29,3.57,12.14,9.57h.07c1.29-5.93,6.29-9.57,12.72-9.57,7.86,0,12.43,5,12.43,13.72v20.35c0,.99-.8,1.79-1.79,1.79h-.28c-.99,0-1.79-.8-1.79-1.79v-19.64c0-7-3.36-10.93-9.5-10.93-6.86,0-11.64,5-11.64,13.86v16.71c0,.99-.8,1.79-1.79,1.79h-.28c-.99,0-1.79-.8-1.79-1.79v-20.07c0-6.64-3.36-10.5-9.5-10.5-6.79,0-11.57,5.14-11.57,14.14v16.43c0,.99-.8,1.79-1.79,1.79h-.28c-.99,0-1.79-.8-1.79-1.79v-31.71c0-.99.8-1.79,1.79-1.79Z"/>
    <path d="M206.49,66.34h.63c.99,0,1.79.8,1.79,1.79v3.06c0,.99-.8,1.79-1.79,1.79h-.63c-.99,0-1.79-.8-1.79-1.79v-3.06c0-.99.8-1.79,1.79-1.79ZM206.71,77.77h.28c.99,0,1.79.8,1.79,1.79v31.71c0,.99-.8,1.79-1.79,1.79h-.28c-.99,0-1.79-.8-1.79-1.79v-31.71c0-.99.8-1.79,1.79-1.79Z"/>
    <path d="M219.95,101.27h0c.9,0,1.66.66,1.77,1.55.58,4.7,3.97,7.45,11.27,7.45,7.79,0,11.93-2.71,11.93-7.21,0-1.86-.64-3.43-2.36-4.36-1.57-.79-4.71-1.29-10.14-1.79-5.93-.57-9.43-1.36-11.5-2.79-1.93-1.36-2.86-3.71-2.86-6.29,0-6.36,5.86-10.64,14.86-10.64s13.63,3.77,14.33,10.59c.11,1.06-.72,1.99-1.78,1.99h-.07c-.9,0-1.68-.67-1.77-1.56-.55-5.16-3.98-7.65-10.56-7.65s-11.14,2.86-11.14,7.07c0,1.71.5,3.5,2.29,4.36,1.79.93,5.22,1.43,10.36,2,6.07.64,8.64,1.14,10.86,2.36,2.21,1.29,3.36,3.79,3.36,6.57,0,6.72-5.64,10.72-15.79,10.72s-14.13-4.22-14.82-10.38c-.12-1.06.72-1.98,1.78-1.98Z"/>
    <path d="M287.42,95.84h-27.07c.07,9,5.29,14.43,13.36,14.43,6.09,0,10.56-2.88,11.65-7.6.18-.79.92-1.33,1.73-1.33h.09c1.13,0,1.99,1.03,1.76,2.14-1.33,6.31-7.18,10.15-15.23,10.15-10.5,0-17.22-6.86-17.22-17.93s6.64-18.5,17.07-18.5c9.72,0,15.65,5.86,15.65,16.5v.35c0,.99-.8,1.79-1.79,1.79ZM285.57,92.56c0-7.79-4.57-12-11.86-12s-12.29,4.43-13.22,12.36h25.07v-.36Z"/>
  </g>
  <g>
    <path d="M62.46,114.98c.31.48.89.78,1.5.78.03,0,.07,0,.1,0,.05,0,.1,0,.15-.01.56-.08,1.02-.42,1.28-.93.48-.95,1.71-3.38,2.53-5,.27-.54.27-1.17-.02-1.7-.28-.54-.79-.89-1.4-.97l-1.41-.18c-.83-.11-1.77-.23-2.5-.35-.6-.1-1.14.1-1.5.54-.39.48-.5,1.17-.27,1.76.21.56.68.94,1.29,1.04l1.81.29-1.62,3.19c-.27.52-.25,1.09.05,1.54Z"/>
    <path d="M84.39,111.95c.08,0,.16,0,.25-.02.6-.08,1.28-.51,1.38-1.44.18-1.71,1.08-3.14,2.47-3.93,1.41-.8,3.13-.83,4.71-.1.54.25,1.11.21,1.57-.11.5-.35.79-.99.74-1.62-.05-.61-.41-1.1-.97-1.37-2.52-1.18-5.33-1.08-7.7.26-2.37,1.34-3.9,3.7-4.18,6.46-.11,1.09.71,1.77,1.54,1.85.06,0,.12,0,.19,0Z"/>
    <path d="M113.48,101.21c.2-.54.09-1.11-.29-1.58-1.45-1.76-3.53-2.63-5.7-2.39-2.18.24-4.1,1.61-5.14,3.66-.42.83-.13,1.7.71,2.12.27.14.56.2.85.2.19,0,.37-.03.55-.09.43-.14.77-.44.98-.86.5-.98,1.36-1.6,2.37-1.7,1.04-.11,2.04.31,2.74,1.17.38.46.92.68,1.49.6h.05c.62-.11,1.17-.56,1.38-1.14Z"/>
    <path d="M101.64,111.62c-.58-.12-1.11.04-1.48.45-.4.45-.53,1.14-.33,1.75.19.59.66,1.01,1.28,1.14.33.07.67.1,1.01.1.23,0,.46-.02.7-.05,1.96-.27,3.65-1.67,4.2-3.49.73-2.41-.6-5.1-3.02-6.12-.56-.24-1.15-.17-1.61.18-.5.38-.77,1.03-.69,1.65.07.58.44,1.05,1,1.29,1.05.44,1.21,1.3,1,1.96-.22.71-.96,1.37-2.06,1.14Z"/>
    <path d="M84.56,123.97c.43.23.94.27,1.4.13.44-.14.78-.43,1-.85l.49-.95s.02,0,.03.01c2.66,1.26,5.54,1.91,8.45,1.91.9,0,1.8-.06,2.7-.19,5.35-.74,10.22-3.69,13.36-8.1.36-.5.42-1.11.17-1.65-.26-.58-.83-.99-1.45-1.05-.57-.05-1.09.2-1.44.69-4.67,6.55-12.98,8.74-20.27,5.38l.76-1.46c.42-.82.14-1.68-.68-2.11-.78-.41-1.9-.25-2.4.72l-2.8,5.41c-.42.82-.14,1.68.68,2.11Z"/>
    <path d="M120.47,71.5c-2.64-.87-5.52-.75-9.05.35l-4.42-10.6c8-5.2,11.52-15.66,8.19-24.41-3.47-9.13-13.19-14.74-22.59-13.07-5.06.9-9.75,3.69-12.9,7.65-2.93-3.92-7.21-6.65-11.81-7.52-3.27-.62-6.58-.42-9.56.59-5.65,1.9-15.43,9.4-12.3,24.3-6.92-.69-16.01,2.19-19.94,10.21-2.33,4.77-2.6,10.39-.75,15.43,1.81,4.9,5.37,8.72,10.03,10.75,4.93,2.14,10.74,2.22,15.57.21,1.14,2.04,3.6,6.64,5.59,10.36,1.32,2.48,2.48,4.64,2.93,5.46-.83.52-1.58,1.12-2.23,1.78-3.24,3.28-4.44,8.23-2.99,12.32,1.45,4.08,5.76,7.02,10.02,6.87,2.67-.11,5.11-1.34,7.44-3.77,4.5,7.34,12.64,12.35,21.32,13.11.72.06,1.44.09,2.16.09,1.15,0,2.3-.08,3.44-.24,7.34-1.02,14.07-5.23,18.44-11.56,3.15-4.55,4.84-9.76,4.89-15.05.01-1.12-.92-1.79-1.82-1.8h0c-.88,0-1.53.63-1.53,1.51-.1,10.78-7.9,20.75-18.13,23.18-10.13,2.41-21.47-2.75-26.45-12.03.41-.57.84-1.19,1.37-2,.36-.55.33-1.05.23-1.38-.12-.41-.39-.78-.76-1.03-.79-.52-1.7-.34-2.21.44l-.09.13c-1.88,2.84-4.21,6.37-7.72,6.95-3.01.51-6.35-1.58-7.43-4.68-1.03-2.98.03-6.69,2.59-9.02,2.59-2.35,6.39-3.2,10.43-2.34.43.09.85.02,1.19-.19.34-.22.58-.59.68-1.03.18-.86-.26-1.89-1.33-2.11-2.82-.61-5.81-.45-8.44.42l-.3-.53c16.13-18,40.26-26.86,45.44-28.61l.88,2.24c-.4.16-.87.37-1.3.56l-.67.29c-10.65,4.57-20.82,10.5-30.22,17.64-.86.65-.8,1.66-.29,2.32.27.35.64.59,1.04.67.46.1.92-.02,1.32-.32,5.73-4.34,11.71-8.22,17.78-11.53,3.01-1.64,6.15-3.2,9.33-4.63l1.1-.5c2.82-1.29,5.74-2.62,8.77-3,2.97-.37,6.47.52,7.57,3.36,1.05,2.7-.56,5.59-2.6,6.95-1.75,1.16-4.23,1.7-6.51,1.42.33-1.28.53-2.99-.17-4.34-.44-.84-1.17-1.42-2.17-1.72-1.56-.47-2.95.02-3.82,1.35-1.1,1.68-.99,4.13.24,5.57.38.45.85.85,1.38,1.19-1.64,2.54-4.19,4.3-7.2,4.98-3.25.75-6.7.08-9.46-1.82-.38-.26-.82-.36-1.25-.28-.46.08-.87.36-1.15.76-.24.35-.34.75-.3,1.15.05.45.29.83.69,1.11,3.55,2.45,7.98,3.32,12.16,2.38,4.13-.92,7.58-3.43,9.71-7.08,2.57.45,5.3.01,7.01-.55,3.9-1.29,6.67-4.59,7.07-8.39.41-4-2.04-7.58-6.11-8.91ZM51.64,81.5c-.07,0-.13,0-.2.01-.17.02-.34.08-.49.16-3.88,2.02-8.59,2.34-12.92.89-4.05-1.36-7.23-4.09-8.94-7.7-1.9-4-2.09-8.69-.51-12.89,1.49-3.96,4.38-7.04,8.12-8.65,2.44-1.05,6.33-1.88,9.97-1.07.69,2.98,1.72,6.26,4.05,8.18,1.23,1.01,2.85,1.46,4.47,1.25,1.52-.23,2.8-.99,3.6-2.12,1.72-2.42,1.15-5.63-1.34-7.46-2.55-1.88-5.72-2.63-7.97-2.93-1.29-4.98-.49-10.7,2.09-14.97,2.23-3.69,5.57-6.09,9.66-6.95,6.27-1.33,12.9,1.62,16.53,7.34-2.16,3.8-3.27,8.7.04,11.22.82.62,2.12.9,3.41.72,1.19-.17,2.2-.7,2.77-1.47,2.65-3.54-.11-7.4-1.75-9.7l-.05-.06c-.17-.24-.33-.46-.47-.67,2.33-4.1,6.64-6.8,11.84-7.42,5.79-.68,11.6,1.38,15.16,5.4,3.31,3.73,4.78,8.52,4.14,13.49-.62,4.77-3.18,9.1-7.05,11.93l-.66-1.76c-.37-.98-1.33-1.21-2.09-.93-.79.3-1.43,1.17-1.03,2.22l4.38,10.22c-5.23,1.78-29.29,10.68-45.8,28.59-.88-1.6-2.46-4.57-3.98-7.46-1.45-2.74-2.81-5.33-3.42-6.4-.28-.51-.86-.98-1.53-.98ZM56.17,55.48c.29.48.33,1,.13,1.58-.26.76-.72,1.16-1.42,1.27-1,.1-2.28-.59-2.89-1.59-.67-1.09-1.2-2.35-1.68-3.97,3.04.58,5.17,1.56,5.86,2.71ZM81.52,42.51c-.17.4-.54.61-1.15.66-.18,0-.45-.06-.68-.31-.35-.38-.69-1.24-.36-3.18h0c.1-.61.38-1.38.64-2,1.32,1.92,1.96,3.87,1.54,4.83ZM110.74,85.03c-.31-.25-.6-.61-.59-1.03,0-.32.18-.5.32-.53,0,0,0,0,.01,0,.11,0,.2.16.23.22.16.31.17.77.03,1.35Z"/>
  </g>
</svg>