<?xml version="1.0" encoding="UTF-8"?>
<svg id="Layer_1" xmlns="http://www.w3.org/2000/svg" version="1.1" viewBox="0 0 313.34 155.11">
  <!-- Generator: Adobe Illustrator 30.1.0, SVG Export Plug-In . SVG Version: 2.1.1 Build 136)  -->
  <defs>
    <style>
      .st0 {
        fill: #fff;
      }
    </style>
  </defs>
  <g>
    <path class="st0" d="M103.15,55.27c.83-.3,1.87-.05,2.27,1.01l.58,1.56c3.73-2.79,6.2-7.03,6.8-11.66.63-4.9-.82-9.63-4.08-13.31-3.52-3.96-9.25-6-14.97-5.32-5.09.61-9.32,3.24-11.62,7.23.13.18.27.38.41.59l.05.06c1.66,2.33,4.44,6.22,1.74,9.84-.59.8-1.64,1.35-2.86,1.52-1.32.18-2.66-.1-3.5-.75-3.34-2.54-2.26-7.48-.12-11.28-3.58-5.58-10.1-8.46-16.25-7.16-4.03.85-7.32,3.22-9.52,6.85-2.53,4.18-3.32,9.8-2.09,14.69,2.22.3,5.37,1.06,7.91,2.93,2.55,1.88,3.14,5.16,1.37,7.64-.83,1.16-2.14,1.93-3.69,2.17-1.65.22-3.31-.25-4.57-1.28-2.34-1.93-3.37-5.18-4.06-8.13-3.57-.76-7.37.05-9.74,1.08-3.7,1.6-6.54,4.63-8.01,8.53-1.56,4.14-1.37,8.77.5,12.71,1.69,3.56,4.82,6.25,8.82,7.59,4.27,1.43,8.92,1.11,12.74-.88.17-.09.36-.15.54-.17.08-.01.15-.02.22-.02.79,0,1.39.57,1.66,1.05.6,1.07,1.96,3.64,3.39,6.35l.09.17c1.43,2.71,2.91,5.5,3.79,7.1,16.39-17.68,40.31-26.56,45.37-28.3l-4.3-10.03c-.43-1.14.26-2.09,1.11-2.41Z"/>
    <path class="st0" d="M110.62,83.58s-.16.14-.17.39c0,.25.11.5.34.74.07-.42.05-.76-.07-.99-.04-.08-.09-.13-.11-.14Z"/>
    <path class="st0" d="M80.65,43.17c.55-.05.86-.22,1.01-.57.37-.86-.19-2.65-1.37-4.43-.27.69-.45,1.27-.52,1.7l-.02.12c-.29,1.78.02,2.57.34,2.92.22.24.45.26.56.26Z"/>
    <path class="st0" d="M55.25,58.27c.63-.1,1.04-.47,1.28-1.17.19-.54.15-1.01-.12-1.45-.64-1.07-2.64-2-5.49-2.58.45,1.48.95,2.66,1.58,3.68.58.94,1.79,1.61,2.74,1.51Z"/>
    <path class="st0" d="M121.29,68.43c-2.52-.82-5.14-.96-8.1-.4l-2.34-5.61c7.62-6.38,10.72-17.32,7.21-26.55-4-10.52-15.23-17-26.11-15.07-4.53.81-8.82,2.94-12.2,6.01-3.14-3-7.08-5.08-11.21-5.87-3.8-.72-7.66-.48-11.16.7-6.02,2.02-16.17,9.51-14.98,23.98-7.27.49-15.14,4.15-19,12.03-2.71,5.54-3.03,12.07-.88,17.92,2.11,5.73,6.28,10.19,11.74,12.56,4.77,2.07,10.29,2.47,15.25,1.17,1.15,2.13,2.65,4.92,3.93,7.32l.31.58c.59,1.1,1.14,2.14,1.62,3.03-.13.12-.25.24-.37.36-4.09,4.13-5.59,10.42-3.73,15.64,1.92,5.41,7.43,9.18,13.17,9,2.35-.09,4.57-.85,6.66-2.24,5.23,6.48,13.19,10.8,21.55,11.54.81.07,1.62.11,2.43.11,1.29,0,2.59-.09,3.87-.27,8.21-1.14,15.72-5.83,20.59-12.88,3.5-5.07,5.38-10.88,5.44-16.81,0,0,.05-7.95-2.41-13.81,3.9-2.08,6.58-5.86,7.02-10.15.58-5.55-2.76-10.49-8.31-12.3ZM126.8,80.42c-.4,3.85-3.2,7.18-7.14,8.48-1.69.56-4.4,1-6.95.57-2.15,3.62-5.59,6.11-9.71,7.03-4.2.94-8.66.06-12.22-2.4-.44-.3-.7-.72-.75-1.21-.05-.43.06-.87.32-1.25.29-.43.75-.72,1.24-.81.47-.08.94.02,1.35.31,2.71,1.87,6.1,2.52,9.3,1.79,2.9-.65,5.38-2.35,6.99-4.77-.49-.33-.92-.71-1.28-1.13-1.27-1.48-1.38-4-.25-5.73.9-1.38,2.35-1.9,3.97-1.41,1.04.31,1.79.91,2.25,1.79.7,1.33.52,3.02.22,4.26,2.19.23,4.56-.31,6.22-1.41,1.98-1.32,3.55-4.13,2.53-6.74-1.07-2.75-4.47-3.61-7.38-3.25-2.99.37-5.89,1.69-8.69,2.97l-1.09.5c-3.16,1.42-6.28,2.98-9.28,4.61-6.04,3.28-11.98,7.14-17.68,11.46-.44.33-.94.45-1.44.35-.44-.09-.84-.35-1.13-.73-.28-.37-.42-.83-.39-1.26.03-.5.28-.93.71-1.26,9.38-7.11,19.51-13.03,30.12-17.58l.71-.31c.37-.16.77-.33,1.12-.48l-.77-1.96c-5.02,1.71-29,10.55-44.97,28.32l.18.33c2.62-.84,5.59-.98,8.37-.38,1.15.25,1.63,1.35,1.44,2.28-.1.48-.37.88-.74,1.12-.37.24-.83.32-1.3.21-3.98-.85-7.72-.01-10.25,2.29-2.51,2.28-3.55,5.91-2.54,8.82,1.05,3.02,4.29,5.07,7.23,4.56,3.43-.57,5.74-4.05,7.59-6.85l.09-.13c.27-.41.66-.68,1.1-.77s.9.02,1.32.29c.39.26.69.66.82,1.11.1.36.14.91-.25,1.5-.51.77-.92,1.37-1.32,1.92,4.94,9.12,16.16,14.2,26.12,11.82,10.13-2.41,17.84-12.27,17.94-22.94,0-.96.71-1.65,1.68-1.65.98,0,1.98.74,1.97,1.95-.05,5.3-1.74,10.51-4.89,15.07-4.38,6.34-11.11,10.55-18.46,11.57-1.14.16-2.3.24-3.44.24-.72,0-1.45-.03-2.16-.09-8.59-.75-16.71-5.72-21.24-12.96-2.31,2.35-4.72,3.55-7.37,3.66-.1,0-.21,0-.31,0-4.21,0-8.39-2.94-9.81-6.94-1.46-4.12-.25-9.11,3.01-12.42.63-.63,1.34-1.21,2.13-1.72-.49-.89-1.58-2.94-2.84-5.29l-.33-.62c-1.92-3.58-4.08-7.64-5.18-9.6-4.82,1.96-10.6,1.86-15.5-.27-4.68-2.03-8.25-5.86-10.06-10.79-1.86-5.06-1.59-10.7.75-15.48,3.88-7.94,12.92-10.87,19.8-10.26-3.01-14.81,6.77-22.28,12.39-24.17,3-1.01,6.31-1.21,9.59-.59,4.54.86,8.8,3.55,11.73,7.39,3.16-3.9,7.81-6.63,12.81-7.52,9.43-1.68,19.18,3.96,22.66,13.11,3.31,8.71-.17,19.18-8.11,24.41l4.3,10.31c3.49-1.07,6.34-1.17,8.97-.31,4.12,1.35,6.6,4.97,6.18,9.03ZM84.01,121.59l2.79-5.38c.24-.45.61-.77,1.08-.92.5-.16,1.05-.1,1.51.14.9.47,1.2,1.41.74,2.3l-.68,1.31c7.15,3.22,15.29,1.02,19.85-5.37.38-.53.94-.8,1.57-.75.67.06,1.28.51,1.57,1.13.27.59.2,1.25-.19,1.79-3.15,4.42-8.04,7.39-13.41,8.13-.9.12-1.81.19-2.71.19-2.91,0-5.72-.63-8.37-1.87l-.42.82c-.24.45-.61.77-1.08.92-.49.16-1.04.11-1.51-.14-.9-.47-1.2-1.41-.74-2.3ZM82.77,109.93c.29-2.8,1.83-5.19,4.24-6.55,2.41-1.36,5.25-1.46,7.8-.27.61.29,1,.83,1.05,1.49.06.68-.25,1.37-.8,1.75-.5.35-1.13.39-1.72.12-1.53-.71-3.18-.68-4.55.09-1.35.76-2.22,2.15-2.39,3.8-.1,1.01-.84,1.47-1.5,1.56-.09.01-.18.02-.27.02-.07,0-.13,0-.2-.01-.9-.09-1.79-.83-1.67-2.01ZM102.81,108.53c-.61-.26-1.01-.77-1.09-1.4-.09-.67.21-1.37.74-1.78.5-.38,1.14-.46,1.75-.2,2.48,1.04,3.84,3.8,3.09,6.27-.56,1.86-2.29,3.3-4.3,3.58-.24.03-.48.05-.71.05-.35,0-.7-.04-1.03-.11-.67-.14-1.17-.59-1.39-1.23-.22-.66-.07-1.4.36-1.89.4-.45.99-.63,1.62-.5h0c1.01.22,1.67-.38,1.87-1.03.09-.29.29-1.26-.91-1.77ZM112.25,102.38h-.06c-.62.09-1.21-.14-1.62-.64-.67-.81-1.61-1.21-2.6-1.11-.95.1-1.77.68-2.24,1.62-.23.46-.6.78-1.06.93-.19.06-.39.09-.59.09-.31,0-.63-.08-.92-.22-.44-.22-.75-.57-.89-.99-.14-.42-.1-.89.12-1.32,1.05-2.09,3.01-3.48,5.23-3.73,2.21-.24,4.32.64,5.8,2.43.42.51.53,1.13.31,1.72-.23.63-.82,1.11-1.49,1.22ZM62.55,109.96c-.66-.11-1.17-.52-1.41-1.13-.24-.64-.12-1.39.3-1.9.39-.48.98-.7,1.63-.59.69.11,1.58.23,2.37.33l1.51.19c.65.09,1.2.47,1.51,1.05.31.58.31,1.25.02,1.83-.81,1.61-2.04,4.04-2.52,4.98-.28.55-.79.92-1.39,1-.05,0-.11.01-.16.02-.04,0-.07,0-.11,0-.66,0-1.28-.32-1.62-.84-.33-.5-.35-1.12-.06-1.69l1.52-2.99-1.6-.26Z"/>
  </g>
  <g>
    <path class="st0" d="M142.92,77.77h.25c1,0,1.81.82,1.79,1.82l-.12,7.75h.07c1.5-6.43,6.36-10.14,12.64-10.14,6.86,0,11.29,3.57,12.14,9.57h.07c1.29-5.93,6.29-9.57,12.72-9.57,7.86,0,12.43,5,12.43,13.72v20.35c0,.99-.8,1.79-1.79,1.79h-.28c-.99,0-1.79-.8-1.79-1.79v-19.64c0-7-3.36-10.93-9.5-10.93-6.86,0-11.64,5-11.64,13.86v16.71c0,.99-.8,1.79-1.79,1.79h-.28c-.99,0-1.79-.8-1.79-1.79v-20.07c0-6.64-3.36-10.5-9.5-10.5-6.79,0-11.57,5.14-11.57,14.14v16.43c0,.99-.8,1.79-1.79,1.79h-.28c-.99,0-1.79-.8-1.79-1.79v-31.71c0-.99.8-1.79,1.79-1.79Z"/>
    <path class="st0" d="M206.49,66.34h.63c.99,0,1.79.8,1.79,1.79v3.06c0,.99-.8,1.79-1.79,1.79h-.63c-.99,0-1.79-.8-1.79-1.79v-3.06c0-.99.8-1.79,1.79-1.79ZM206.71,77.77h.28c.99,0,1.79.8,1.79,1.79v31.71c0,.99-.8,1.79-1.79,1.79h-.28c-.99,0-1.79-.8-1.79-1.79v-31.71c0-.99.8-1.79,1.79-1.79Z"/>
    <path class="st0" d="M219.95,101.27h0c.9,0,1.66.66,1.77,1.55.58,4.7,3.97,7.45,11.27,7.45,7.79,0,11.93-2.71,11.93-7.21,0-1.86-.64-3.43-2.36-4.36-1.57-.79-4.71-1.29-10.14-1.79-5.93-.57-9.43-1.36-11.5-2.79-1.93-1.36-2.86-3.71-2.86-6.29,0-6.36,5.86-10.64,14.86-10.64s13.63,3.77,14.33,10.59c.11,1.06-.72,1.99-1.78,1.99h-.07c-.9,0-1.68-.67-1.77-1.56-.55-5.16-3.98-7.65-10.56-7.65s-11.14,2.86-11.14,7.07c0,1.71.5,3.5,2.29,4.36,1.79.93,5.22,1.43,10.36,2,6.07.64,8.64,1.14,10.86,2.36,2.21,1.29,3.36,3.79,3.36,6.57,0,6.72-5.64,10.72-15.79,10.72s-14.13-4.22-14.82-10.38c-.12-1.06.72-1.98,1.78-1.98Z"/>
    <path class="st0" d="M287.42,95.84h-27.07c.07,9,5.29,14.43,13.36,14.43,6.09,0,10.56-2.88,11.65-7.6.18-.79.92-1.33,1.73-1.33h.09c1.13,0,1.99,1.03,1.76,2.14-1.33,6.31-7.18,10.15-15.23,10.15-10.5,0-17.22-6.86-17.22-17.93s6.64-18.5,17.07-18.5c9.72,0,15.65,5.86,15.65,16.5v.35c0,.99-.8,1.79-1.79,1.79ZM285.57,92.56c0-7.79-4.57-12-11.86-12s-12.29,4.43-13.22,12.36h25.07v-.36Z"/>
  </g>
</svg>